<?xml version="1.0" encoding="UTF-8" standalone="no"?>
<!-- Created with Inkscape (http://www.inkscape.org/) -->

<svg
   xmlns:dc="http://purl.org/dc/elements/1.1/"
   xmlns:cc="http://creativecommons.org/ns#"
   xmlns:rdf="http://www.w3.org/1999/02/22-rdf-syntax-ns#"
   xmlns:svg="http://www.w3.org/2000/svg"
   xmlns="http://www.w3.org/2000/svg"
   xmlns:sodipodi="http://sodipodi.sourceforge.net/DTD/sodipodi-0.dtd"
   xmlns:inkscape="http://www.inkscape.org/namespaces/inkscape"
   id="svg2"
   version="1.1"
   inkscape:version="0.48.4 r9939"
   width="302.4875"
   height="87.9625"
   xml:space="preserve"
   sodipodi:docname="note_sth_logo.eps"><metadata
     id="metadata8"><rdf:RDF><cc:Work
         rdf:about=""><dc:format>image/svg+xml</dc:format><dc:type
           rdf:resource="http://purl.org/dc/dcmitype/StillImage" /><dc:title></dc:title></cc:Work></rdf:RDF></metadata><defs
     id="defs6" /><sodipodi:namedview
     pagecolor="#ffffff"
     bordercolor="#666666"
     borderopacity="1"
     objecttolerance="10"
     gridtolerance="10"
     guidetolerance="10"
     inkscape:pageopacity="0"
     inkscape:pageshadow="2"
     inkscape:window-width="640"
     inkscape:window-height="480"
     id="namedview4"
     showgrid="false"
     inkscape:zoom="1.1471549"
     inkscape:cx="151.24374"
     inkscape:cy="43.981251"
     inkscape:window-x="49"
     inkscape:window-y="24"
     inkscape:window-maximized="0"
     inkscape:current-layer="g10" /><g
     id="g10"
     inkscape:groupmode="layer"
     inkscape:label="ink_ext_XXXXXX"
     transform="matrix(1.25,0,0,-1.25,0,87.9625)"><g
       id="g12"
       transform="matrix(0.08216111,0,0,0.08216111,21.584515,6.2763494)"><path
         d="m 1523.54,15.1563 c -1.7,-1 -3.4,-1.8008 -5.21,-2.6993 1.3,0.4961 3.01,1.3946 5.21,2.6993"
         style="fill:#231f20;fill-opacity:1;fill-rule:nonzero;stroke:none"
         id="path14"
         inkscape:connector-curvature="0" /><path
         d="m 942.789,188.129 c 3.816,20.617 11.289,38.859 28.75,53.75 42.501,36.25 77.481,5.504 83.751,-26.25 6.16,-31.195 -17.62,-71.512 -51.24,-87.063 -46.886,-21.687 -64.144,28.774 -65.011,30.219 0.684,10.074 2.012,19.981 3.75,29.344 z m -362.203,-78.91 c -9.664,-37.2854 -26.078,-56.5588 -49.254,-57.8167 -24.285,-0.7109 -42.566,14.7344 -54.945,46.5118 -1.645,4.6289 -3.297,9.5589 -4.856,14.7739 -3.097,13.781 -4.699,26.359 -5.054,37.925 -0.055,2.571 -0.149,5.18 -0.082,7.645 0.027,1.012 0.113,1.972 0.164,2.969 0.156,3.168 0.394,6.261 0.761,9.242 1.008,8.039 2.762,15.472 5.469,22.109 9.613,25.899 26.508,45.863 50.785,60.004 8.86,-8.219 17.383,-15.363 25.778,-21.652 8.386,-6.184 19.195,-12.688 32.304,-19.414 6.59,-35.461 6.235,-69.551 -1.07,-102.297 z m 624.154,404.136 c -28.01,41.297 -36.6,107.5 7.39,129.5 57.9,29 94.01,-22.699 120.11,-51.8 46.8,58.703 93.19,89.601 138.7,34 41.19,-50.297 -28.01,-135.403 -28.01,-135.403 l -111.2,-136.394 c 0,0 -79.09,89.695 -126.99,160.097 z m 883.6,67.098 c 1.41,37.301 33.11,79.902 72.4,52.301 45.61,-31.899 22.6,-78.199 22.6,-78.199 l -95.61,-236.602 c 0,0 -0.8,225.199 0.61,262.5 z m 244.1,-554.3983 c 22.7,20.6016 87.31,111.2033 87.31,111.2033 3.18,53.097 -34.2,31.297 -34.2,31.297 0,0 -17.01,-23.301 -36.21,-48.797 -24.3,-32.0041 -53.6,-66.1017 -76.1,-57.301 -44.7,17.5977 3.5,143.195 -66.5,216.297 -26.31,27.5 -76.51,2.902 -76.51,2.902 0,0 95.81,225.098 106.8,262.297 10,33.504 7.4,71.5 -12.09,106.5 -25.9,46.602 -106.8,59.602 -145.51,33.102 -42.09,-28.797 -42.89,-115 -42.89,-115 0,0 0.9,-200.496 1.6,-358.399 -17.01,-30.199 -64.8,-109 -121.3,-143.1013 -45.4,-27.2969 -56.3,50.6993 -58.3,61.0043 -4.5,22.5 -2.3,211.796 -2.3,211.796 l 0,0.301 c 51.4,0 105.89,0 105.89,0 0,0 20.8,-1.203 18.81,25.297 -1.9,24 -39.2,24.102 -39.2,24.102 l -85.7,0.5 0,0.597 c 0,0 -0.1,273.2 -0.1,301.004 -6,18.699 -46.31,11.403 -52.3,-13.101 l 0,-127.903 c 0,-76.199 0.1,-159.695 0.1,-159.695 l 0,-0.602 -50.5,0.297 c -1,0 -18.3,-0.297 -18.3,-21.8 0,-23.293 25.6,-28.293 32.59,-28.497 1.81,-0.101 16.01,-0.101 36.01,-0.101 l 0,-0.199 c 0,0 0,-30.403 0.1,-74.7 -7.7,-15.199 -33.21,-59.703 -102.5,-153.5 -0.71,7.7 -1.8,15.899 -3.5,24.598 -9.31,48.305 -54.8,99.402 -79.9,122.801 -11.01,10.301 -12,17.601 -12.6,29.902 -0.51,9.797 -30.6,8.102 -38.3,5.199 -12.61,-13.199 -61.7,-114.597 -89.71,-115.199 -8.8,-0.101 -25,23.301 -44.2,47.699 -31.39,39.899 -67.39,90.297 -67.39,90.297 0,0 118.5,130.907 151.3,193.407 21.9,41.699 28.3,110.199 -15.2,156.195 -79.11,83.402 -169.91,-10.899 -169.91,-10.899 0,0 -66.7,76.602 -139.79,35.899 -67.31,-37.5 -75,-132.301 -47,-181.195 37.3,-65.106 155.09,-195.907 155.09,-195.907 0,0 -48.49,-70.472 -101.28,-137.675 -9.31,-11.7 -18.21,-23.301 -27.01,-34.301 -0.7,-0.797 -1.5,-1.699 -2.19,-2.699 -0.21,-0.196 -0.31,-0.399 -0.51,-0.598 -6.7,-8.402 -13.3,-16.399 -19.8,-23.805 -0.09,-0.199 -10.18,-11.019 -10.38,-11.219 -54.82,-58.1011 -144.196,-72.4761 -176.774,-35.0542 -4.219,4.8555 -6.34,10.1133 -9.297,15.7031 45.625,-17.5 106.481,15.1991 131.911,57.6521 47.44,79.192 -24.25,209.824 -138.415,135.043 -46.242,-30.281 -61.574,-89.586 -56.992,-142.84 -20.352,-25.976 -44.852,-51.734 -71.309,-67.7027 -45.402,-27.3008 -56.3,50.7027 -58.3,60.9957 -4.493,22.5 -2.297,211.809 -2.297,211.809 l 0,0.305 c 51.398,0 105.898,0 105.898,0 0,0 20.801,-1.203 18.801,25.293 -1.895,24.004 -39.199,24.097 -39.199,24.097 l -85.703,0.512 0,0.594 c 0,0 -0.098,273.203 -0.098,301 -5.996,18.703 -46.301,11.402 -52.297,-13.098 l 0,-127.902 c 0,-76.199 0.098,-159.696 0.098,-159.696 l 0,-0.605 -50.496,0.301 c -1.008,0 -18.301,-0.301 -18.301,-21.797 0,-23.301 25.594,-28.301 32.598,-28.504 1.796,-0.102 15.996,-0.102 35.996,-0.102 l 0,-0.195 c 0,0 0,-20.184 0.058,-51.617 l 0,-0.012 c -8.535,-15.336 -29.961,-52.164 -49.039,-54.363 -10.836,-1.25 -30,6.25 -44.91,22.598 -7.867,11.847 -15.859,21.257 -23.883,28.332 -8.015,6.972 -19.867,11.89 -35.469,14.839 -18.164,1.715 -35.546,-2.39 -52.343,-12.421 -16.09,-10.395 -30.114,-22.985 -42.063,-37.836 -11.855,-14.766 -20.496,-29.821 -25.828,-45.258 -5.23,-15.348 -8.258,-30.918 -9.18,-46.531 -0.636,-11.993 0.157,-25.223 2.106,-39.641 -0.195,-0.227 -0.399,-0.477 -0.594,-0.699 C 393.34,82.5547 366.34,59.4531 344.137,67.1523 294.734,84.5547 354.84,270.957 241.738,295.453 192.836,306.055 151.34,253.555 135.641,230.156 c -1.403,12.102 -3.004,23.899 -4.602,34.899 -2.601,17.699 -4.801,36.699 -31,36 -20.9999,-0.496 -50.3046,-30 -81.1992,-67.7 -0.3007,-0.402 -52.9023,-71.902 18.9961,-56.601 23.8008,29.598 43.3008,51.902 48.7032,51.902 0.2968,0 0.6015,0 0.8007,-0.199 7.9961,-5.703 4,-85.102 5.8008,-150.3047 0.8008,-29.5976 -1.9023,-53.5976 2.5977,-65.5976 7.4997,-19.29689 46.4957,0.7031 45.8987,14.1016 -0.098,2.5 0.301,41.0976 2.203,93.1987 l 0,0.598 c 13.898,30.602 55.398,115.106 88.699,114.504 60.699,-1.203 -3.5,-205.4023 100.899,-230.80075 33.003,-8 69.5,17.00005 105.898,54.89845 0.465,0.4805 0.922,1.0351 1.387,1.5156 0.507,-0.9765 0.949,-2.0312 1.48,-2.9883 1.063,-2.0156 2.231,-4.0234 3.387,-5.9375 5.051,-8.0351 10.969,-15.1757 17.762,-21.3007 19.925,-16.9493 39.199,-25.64849 57.824,-26.37505 16.844,-0.97656 36.086,4.46094 57.832,16.19145 17.562,11.3203 30.871,27.6718 39.922,48.9765 8.953,21.3906 14.136,41.5113 15.558,60.5433 1.414,18.925 0.219,38.472 -3.597,58.718 11.886,-2.769 25.379,-2.378 40.578,1.176 10.976,3.555 22.996,13.176 33.605,25.985 1.52,-51.418 6.418,-118.6879 20.957,-163.2817 C 741.488,16.6992 765.785,3.05859 788.285,1.55469 829.137,-1.25 873.578,38.3242 904.809,73.6602 c 2.226,-4.7969 4.601,-9.4141 7.226,-13.6172 16.68,-26.6914 35.207,-48.4102 70.754,-55.66409 32.901,-6.71875 76.571,-2.19141 107.141,12.77339 33.22,14.254 63.4,36.0704 88.28,62.0196 11.2,12.6992 24.13,26.1831 35.03,40.0821 0.09,0 100.6,132.402 120.5,156.199 62.3,-79.297 72.6,-102.797 112.8,-141.797 14.8,-14.301 47.8,-11.902 64.6,6.699 34.4,38.399 72.19,90.997 72.19,90.997 0,0 82.1,-68.696 77.21,-137.7973 -3.6,-50.1992 -37.1,-69.1992 -105.91,-30.6992 -11.09,6.1992 -25.99,-22.4024 -18.49,-33.9024 13.89,-21.29685 63.89,-33.39451 99.1,-25.19919 6.3,1.5 12.6,3.5039 18.7,6.10156 0,0 0.1,0 0.2,0.10156 0.4,0.19927 0.8,0.29687 1.2,0.49607 0.3,0.1055 0.7,0.3047 1.1,0.5039 1.8,0.8985 3.5,1.6993 5.2,2.6993 0.7,0.3984 1.5,0.7968 2.3,1.3984 1.7,1 3.59,2.2031 5.6,3.6016 0.7,0.3984 1.29,0.8984 2,1.5 23,16.2968 66.79,57.996 131.5,160.4957 1.5,-29.398 5.4,-58.797 9.6,-84.5973 11.1,-68.9024 44.4,-92.59767 74.49,-94.60157 61.21,-4.19532 130.7,86.90237 151.41,116.10187 0.19,-54.6995 0.41,-92.3011 0.41,-94.4027 0,-8.0976 2.4,-21.80074 21.89,-20.99996 28.4,1 28.4,33.49996 28.4,33.49996 l 0.51,141.4027 c 0,0 84.2,91.797 99.2,34.8 11.28,-42.601 7.5,-83.703 12.89,-123.9019 2.01,-14.8945 24.51,-85.69529 59.1,-87.699194 35.19,-2.101566 52.79,8.902344 71.5,25.800794"
         style="fill:#231f20;fill-opacity:1;fill-rule:nonzero;stroke:none"
         id="path16"
         inkscape:connector-curvature="0" /></g></g></svg>