<?xml version="1.0" encoding="UTF-8" standalone="no"?>
<svg
   xmlns:dc="http://purl.org/dc/elements/1.1/"
   xmlns:cc="http://creativecommons.org/ns#"
   xmlns:rdf="http://www.w3.org/1999/02/22-rdf-syntax-ns#"
   xmlns:svg="http://www.w3.org/2000/svg"
   xmlns="http://www.w3.org/2000/svg"
   xmlns:sodipodi="http://sodipodi.sourceforge.net/DTD/sodipodi-0.dtd"
   xmlns:inkscape="http://www.inkscape.org/namespaces/inkscape"
   height="32px"
   version="1.1"
   viewBox="0 0 32 32"
   width="32px"
   id="svg2"
   inkscape:version="0.48.4 r9939"
   sodipodi:docname="add.svg">
  <metadata
     id="metadata15">
    <rdf:RDF>
      <cc:Work
         rdf:about="">
        <dc:format>image/svg+xml</dc:format>
        <dc:type
           rdf:resource="http://purl.org/dc/dcmitype/StillImage" />
        <dc:title></dc:title>
      </cc:Work>
    </rdf:RDF>
  </metadata>
  <sodipodi:namedview
     pagecolor="#ffffff"
     bordercolor="#666666"
     borderopacity="1"
     objecttolerance="10"
     gridtolerance="10"
     guidetolerance="10"
     inkscape:pageopacity="0"
     inkscape:pageshadow="2"
     inkscape:window-width="865"
     inkscape:window-height="678"
     id="namedview13"
     showgrid="false"
     inkscape:zoom="7.375"
     inkscape:cx="13.627119"
     inkscape:cy="16"
     inkscape:window-x="59"
     inkscape:window-y="34"
     inkscape:window-maximized="0"
     inkscape:current-layer="Page-1" />
  <desc
     id="desc6" />
  <defs
     id="defs8" />
  <g
     id="Page-1"
     style="fill:#000000;fill-opacity:1;fill-rule:evenodd;stroke:none"
     transform="translate(-1.4576271,-0.95762712)">
    <g
       id="icon-42-note-add"
       style="fill:#000000;fill-opacity:1">
      <path
         d="m 25,25 -3,0 0,-1 3,0 0,-3 1,0 0,3 3,0 0,1 -3,0 0,3 -1,0 0,-3 0,0 0,0 z M 20.599707,27 6.9987461,27 C 6.4471539,27 6,26.561385 6,26.001254 L 6,11 l 0,0 21,0 0,8.207032 C 26.523168,19.072167 26.020012,19 25.5,19 22.462434,19 20,21.462434 20,24.5 c 0,0.900224 0.216279,1.749933 0.59971,2.500001 l -3e-6,-1e-6 0,0 z M 28,19.599707 28,7.0008642 C 28,5.9016273 27.104183,5 25.999136,5 L 7.0008642,5 C 5.9016273,5 5,5.8958174 5,7.0008642 L 5,25.999136 C 5,27.098373 5.8958174,28 7.0008642,28 l 14.2562978,0 c 1.008792,1.221503 2.534901,2 4.242838,2 3.037566,0 5.5,-2.462434 5.5,-5.5 0,-2.137343 -1.219162,-3.989935 -2.999999,-4.90029 l -1e-6,-3e-6 0,0 z M 6,10 6,6.9987461 C 6,6.4471539 6.4386148,6 6.9987461,6 L 26.001254,6 C 26.552846,6 27,6.4386148 27,6.9987461 L 27,10 6,10 6,10 z M 25.5,29 C 27.985281,29 30,26.985281 30,24.5 30,22.014718 27.985281,20 25.5,20 23.014718,20 21,22.014718 21,24.5 c 0,2.485281 2.014718,4.5 4.5,4.5 l 0,0 0,0 z"
         id="note-add"
         style="fill:#000000;fill-opacity:1"
         inkscape:connector-curvature="0" />
    </g>
  </g>
</svg>
