<?xml version="1.0" encoding="UTF-8" standalone="no"?>
<!-- Created with Inkscape (http://www.inkscape.org/) -->

<svg
   xmlns:dc="http://purl.org/dc/elements/1.1/"
   xmlns:cc="http://creativecommons.org/ns#"
   xmlns:rdf="http://www.w3.org/1999/02/22-rdf-syntax-ns#"
   xmlns:svg="http://www.w3.org/2000/svg"
   xmlns="http://www.w3.org/2000/svg"
   xmlns:sodipodi="http://sodipodi.sourceforge.net/DTD/sodipodi-0.dtd"
   xmlns:inkscape="http://www.inkscape.org/namespaces/inkscape"
   id="svg2"
   version="1.1"
   inkscape:version="0.48.4 r9939"
   width="48.000003"
   height="48.000003"
   xml:space="preserve"
   sodipodi:docname="list.pdf"><metadata
     id="metadata8"><rdf:RDF><cc:Work
         rdf:about=""><dc:format>image/svg+xml</dc:format><dc:type
           rdf:resource="http://purl.org/dc/dcmitype/StillImage" /><dc:title></dc:title></cc:Work></rdf:RDF></metadata><defs
     id="defs6" /><sodipodi:namedview
     pagecolor="#ffffff"
     bordercolor="#666666"
     borderopacity="1"
     objecttolerance="10"
     gridtolerance="10"
     guidetolerance="10"
     inkscape:pageopacity="0"
     inkscape:pageshadow="2"
     inkscape:window-width="640"
     inkscape:window-height="480"
     id="namedview4"
     showgrid="false"
     inkscape:zoom="4.9166663"
     inkscape:cx="24.000002"
     inkscape:cy="24.000002"
     inkscape:window-x="49"
     inkscape:window-y="24"
     inkscape:window-maximized="0"
     inkscape:current-layer="g10" /><g
     id="g10"
     inkscape:groupmode="layer"
     inkscape:label="list"
     transform="matrix(1.25,0,0,-1.25,0,48.000002)"><g
       id="g12"><path
         d="m 29.602,0.798 -20.801,0 c -1.77,0 -3.199,1.434 -3.199,3.204 l 0,28 c 0,1.765 1.429,3.199 3.199,3.199 l 2.398,0 c 0.442,0 0.801,-0.36 0.801,-0.801 0,-0.441 -0.359,-0.801 -0.801,-0.801 l -2.398,0 c -0.883,0 -1.602,-0.715 -1.602,-1.597 l 0,-28 C 7.199,3.119 7.918,2.4 8.801,2.4 l 20.801,0 c 0.882,0 1.597,0.719 1.597,1.602 l 0,28 c 0,0.882 -0.715,1.597 -1.597,1.597 l -2.403,0 c -0.441,0 -0.801,0.36 -0.801,0.801 0,0.441 0.36,0.801 0.801,0.801 l 2.403,0 c 1.765,0 3.199,-1.434 3.199,-3.199 l 0,-28 c 0,-1.77 -1.434,-3.204 -3.199,-3.204 z M 28,31.201 C 28,30.759 27.641,30.4 27.199,30.4 l -16,0 c -0.441,0 -0.801,0.359 -0.801,0.801 0,0.441 0.36,0.801 0.801,0.801 0,0 0.903,0.097 1.602,0.796 l 1.597,1.602 c 0,0 0.625,0.801 1.602,0.801 l 0.801,0 c 0,1.324 1.074,2.398 2.398,2.398 1.328,0 2.403,-1.074 2.403,-2.398 l 0.796,0 C 23.449,35.201 24,34.4 24,34.4 l 1.602,-1.602 c 0.699,-0.699 1.597,-0.796 1.597,-0.796 0.442,0 0.801,-0.36 0.801,-0.801 z m -8.801,4.801 c -0.441,0 -0.801,-0.36 -0.801,-0.801 l 1.602,0 c 0,0.441 -0.359,0.801 -0.801,0.801 z m 4.293,-3.204 c 0,0 -0.547,0.801 -1.457,0.801 l -5.672,0 c -0.91,0 -1.453,-0.801 -1.453,-0.801 l -0.726,-0.796 10.035,0 -0.727,0.796 z"
         style="fill:#333333;fill-opacity:1;fill-rule:evenodd;stroke:none"
         id="path14" /><path
         d="m 15.254,25.677 c -0.086,0.09 -0.227,0.09 -0.313,0 L 11.66,22.412 c -0.086,-0.086 -0.226,-0.086 -0.312,0 L 9.91,23.877 C 9.867,23.92 9.812,23.943 9.754,23.943 9.699,23.943 9.641,23.92 9.598,23.877 L 8.961,23.306 C 8.918,23.263 8.898,23.209 8.898,23.15 c 0,-0.055 0.02,-0.117 0.063,-0.16 l 1.453,-1.52 c 0.086,-0.09 0.227,-0.23 0.309,-0.316 l 0.625,-0.629 c 0.086,-0.086 0.226,-0.086 0.312,0 l 4.215,4.211 c 0.086,0.086 0.086,0.227 0,0.316 l -0.621,0.625 z"
         style="fill:#333333;fill-opacity:1;fill-rule:evenodd;stroke:none"
         id="path16" /><path
         d="m 19.125,23.791 c -0.187,0 -0.348,-0.102 -0.348,-0.227 l 0,-0.898 c 0,-0.121 0.161,-0.227 0.348,-0.227 l 4.707,0 4.43,-0.023 c 0.187,0 0.347,0.101 0.347,0.226 l 0,0.899 c 0.004,0.121 -0.16,0.226 -0.347,0.226 l -4.703,0 -4.434,0.024 z"
         style="fill:#333333;fill-opacity:1;fill-rule:evenodd;stroke:none"
         id="path18" /><path
         d="m 15.254,18.701 c -0.086,0.086 -0.227,0.086 -0.313,0 L 11.66,15.435 c -0.086,-0.09 -0.226,-0.09 -0.312,0 L 9.91,16.9 c -0.043,0.043 -0.098,0.063 -0.156,0.063 -0.055,0 -0.113,-0.02 -0.156,-0.063 L 8.961,16.326 C 8.918,16.283 8.898,16.228 8.898,16.173 c 0,-0.058 0.02,-0.117 0.063,-0.16 l 1.453,-1.523 c 0.086,-0.086 0.227,-0.227 0.309,-0.313 l 0.625,-0.629 c 0.086,-0.085 0.226,-0.085 0.312,0 l 4.215,4.211 c 0.086,0.086 0.086,0.227 0,0.313 l -0.621,0.629 z"
         style="fill:#333333;fill-opacity:1;fill-rule:evenodd;stroke:none"
         id="path20" /><path
         d="m 19.125,16.814 c -0.187,0 -0.348,-0.105 -0.348,-0.226 l 0,-0.899 c 0,-0.125 0.161,-0.226 0.348,-0.226 l 4.707,0 4.43,-0.024 c 0.187,0 0.347,0.102 0.347,0.223 l 0,0.902 c 0.004,0.121 -0.16,0.223 -0.347,0.223 l -4.703,0 -4.434,0.027 z"
         style="fill:#333333;fill-opacity:1;fill-rule:evenodd;stroke:none"
         id="path22" /><path
         d="m 15.254,11.724 c -0.086,0.086 -0.227,0.086 -0.313,0 L 11.66,8.455 c -0.086,-0.086 -0.226,-0.086 -0.312,0 L 9.91,9.92 C 9.867,9.963 9.812,9.986 9.754,9.986 9.699,9.986 9.641,9.963 9.598,9.92 L 8.961,9.349 C 8.918,9.306 8.898,9.252 8.898,9.193 8.898,9.138 8.918,9.08 8.961,9.037 L 10.414,7.513 C 10.5,7.427 10.641,7.287 10.723,7.201 l 0.625,-0.629 c 0.086,-0.086 0.226,-0.086 0.312,0 l 4.215,4.207 c 0.086,0.086 0.086,0.23 0,0.316 l -0.621,0.629 z"
         style="fill:#333333;fill-opacity:1;fill-rule:evenodd;stroke:none"
         id="path24" /><path
         d="m 19.125,9.834 c -0.187,0 -0.348,-0.102 -0.348,-0.223 l 0,-0.902 c 0,-0.121 0.161,-0.227 0.348,-0.223 l 4.707,0 4.43,-0.027 c 0.187,0 0.347,0.105 0.347,0.226 l 0,0.899 c 0.004,0.121 -0.16,0.226 -0.347,0.226 l -4.703,0 -4.434,0.024 z"
         style="fill:#333333;fill-opacity:1;fill-rule:evenodd;stroke:none"
         id="path26" /></g></g></svg>