<?xml version="1.0" encoding="UTF-8" standalone="no"?>
<!-- Created with Inkscape (http://www.inkscape.org/) -->

<svg
   xmlns:dc="http://purl.org/dc/elements/1.1/"
   xmlns:cc="http://creativecommons.org/ns#"
   xmlns:rdf="http://www.w3.org/1999/02/22-rdf-syntax-ns#"
   xmlns:svg="http://www.w3.org/2000/svg"
   xmlns="http://www.w3.org/2000/svg"
   xmlns:sodipodi="http://sodipodi.sourceforge.net/DTD/sodipodi-0.dtd"
   xmlns:inkscape="http://www.inkscape.org/namespaces/inkscape"
   id="svg2"
   version="1.1"
   inkscape:version="0.48.4 r9939"
   width="48.000003"
   height="48.000003"
   xml:space="preserve"
   sodipodi:docname="text.pdf"><metadata
     id="metadata8"><rdf:RDF><cc:Work
         rdf:about=""><dc:format>image/svg+xml</dc:format><dc:type
           rdf:resource="http://purl.org/dc/dcmitype/StillImage" /><dc:title></dc:title></cc:Work></rdf:RDF></metadata><defs
     id="defs6" /><sodipodi:namedview
     pagecolor="#ffffff"
     bordercolor="#666666"
     borderopacity="1"
     objecttolerance="10"
     gridtolerance="10"
     guidetolerance="10"
     inkscape:pageopacity="0"
     inkscape:pageshadow="2"
     inkscape:window-width="640"
     inkscape:window-height="480"
     id="namedview4"
     showgrid="false"
     inkscape:zoom="4.9166663"
     inkscape:cx="24.000002"
     inkscape:cy="24.000002"
     inkscape:window-x="49"
     inkscape:window-y="24"
     inkscape:window-maximized="0"
     inkscape:current-layer="g10" /><g
     id="g10"
     inkscape:groupmode="layer"
     inkscape:label="text"
     transform="matrix(1.25,0,0,-1.25,0,48.000002)"><g
       id="g12"><path
         d="m 29.602,0.798 -20.801,0 c -1.77,0 -3.199,1.434 -3.199,3.204 l 0,28 c 0,1.765 1.429,3.199 3.199,3.199 l 2.398,0 c 0.442,0 0.801,-0.36 0.801,-0.801 0,-0.441 -0.359,-0.801 -0.801,-0.801 l -2.398,0 c -0.883,0 -1.602,-0.715 -1.602,-1.597 l 0,-28 C 7.199,3.119 7.918,2.4 8.801,2.4 l 20.801,0 c 0.882,0 1.597,0.719 1.597,1.602 l 0,28 c 0,0.882 -0.715,1.597 -1.597,1.597 l -2.403,0 c -0.441,0 -0.801,0.36 -0.801,0.801 0,0.441 0.36,0.801 0.801,0.801 l 2.403,0 c 1.765,0 3.199,-1.434 3.199,-3.199 l 0,-28 c 0,-1.77 -1.434,-3.204 -3.199,-3.204 z M 28,31.201 C 28,30.759 27.641,30.4 27.199,30.4 l -16,0 c -0.441,0 -0.801,0.359 -0.801,0.801 0,0.441 0.36,0.801 0.801,0.801 0,0 0.903,0.097 1.602,0.796 l 1.597,1.602 c 0,0 0.625,0.801 1.602,0.801 l 0.801,0 c 0,1.324 1.074,2.398 2.398,2.398 1.328,0 2.403,-1.074 2.403,-2.398 l 0.796,0 C 23.449,35.201 24,34.4 24,34.4 l 1.602,-1.602 c 0.699,-0.699 1.597,-0.796 1.597,-0.796 0.442,0 0.801,-0.36 0.801,-0.801 z m -8.801,4.801 c -0.441,0 -0.801,-0.36 -0.801,-0.801 l 1.602,0 c 0,0.441 -0.359,0.801 -0.801,0.801 z m 4.293,-3.204 c 0,0 -0.547,0.801 -1.457,0.801 l -5.672,0 c -0.91,0 -1.453,-0.801 -1.453,-0.801 l -0.726,-0.796 10.035,0 -0.727,0.796 z"
         style="fill:#333333;fill-opacity:1;fill-rule:evenodd;stroke:none"
         id="path14" /><path
         d="m 10.57,19.888 c -0.355,0 -0.66,-0.105 -0.66,-0.226 l 0,-0.899 c 0,-0.121 0.305,-0.226 0.66,-0.226 l 8.887,0 8.371,-0.024 c 0.36,0 0.66,0.102 0.66,0.223 l 0,0.902 c 0.004,0.121 -0.3,0.227 -0.66,0.223 l -8.887,0 -8.371,0.027 z"
         style="fill:#333333;fill-opacity:1;fill-rule:evenodd;stroke:none"
         id="path16" /><path
         d="m 10.57,23.884 c -0.355,0 -0.66,-0.101 -0.66,-0.222 l 0,-0.903 c 0,-0.121 0.305,-0.222 0.66,-0.222 l 8.887,0 8.371,-0.028 c 0.36,0 0.66,0.106 0.66,0.227 l 0,0.898 c 0.004,0.125 -0.3,0.227 -0.66,0.227 l -8.887,0 -8.371,0.023 z"
         style="fill:#333333;fill-opacity:1;fill-rule:evenodd;stroke:none"
         id="path18" /><path
         d="m 10.57,27.884 c -0.355,0 -0.66,-0.105 -0.66,-0.226 l 0,-0.899 c 0,-0.121 0.305,-0.226 0.66,-0.226 l 8.887,0 8.371,-0.024 c 0.36,0 0.66,0.102 0.66,0.223 l 0,0.902 c 0.004,0.121 -0.3,0.227 -0.66,0.223 l -8.887,0 -8.371,0.027 z"
         style="fill:#333333;fill-opacity:1;fill-rule:evenodd;stroke:none"
         id="path20" /><path
         d="m 10.57,15.888 c -0.355,0 -0.66,-0.101 -0.66,-0.222 l 0,-0.903 c 0,-0.121 0.305,-0.226 0.66,-0.222 l 8.887,0 8.371,-0.028 c 0.36,0 0.66,0.106 0.66,0.227 l 0,0.898 c 0.004,0.125 -0.3,0.227 -0.66,0.227 l -8.887,0 -8.371,0.023 z"
         style="fill:#333333;fill-opacity:1;fill-rule:evenodd;stroke:none"
         id="path22" /><path
         d="m 10.277,11.892 c -0.199,0 -0.367,-0.105 -0.367,-0.226 l 0,-0.899 c 0,-0.121 0.168,-0.226 0.367,-0.226 l 4.922,0 4.641,-0.024 c 0.199,0 0.363,0.102 0.367,0.223 l 0,0.902 c 0,0.121 -0.172,0.227 -0.367,0.223 l -4.926,0 -4.637,0.027 z"
         style="fill:#333333;fill-opacity:1;fill-rule:evenodd;stroke:none"
         id="path24" /></g></g></svg>